<svg width="30" height="30" viewBox="0 0 30 30" fill="none" xmlns="http://www.w3.org/2000/svg">
<path d="M24.1045 15.4621V9.06691C24.1045 8.08746 23.5168 6.12857 21.1662 6.12857H19.4377C19.092 6.12857 18.4007 5.78288 17.8821 5.26435C17.5364 4.91866 16.9488 4.05444 15.2895 4.05444H11.8326C10.1733 4.05444 9.58564 4.91866 9.23995 5.26435C8.72142 5.78288 8.03004 6.12857 7.68436 6.12857H5.95592C3.60525 6.12857 3.01758 8.08746 3.01758 9.06691V20.1289C3.01758 22.4796 4.97647 23.0672 5.95592 23.0672H16.4994M20.3019 23.0672H27.9071M24.1045 19.2647V26.8698M17.7093 14.2522C17.7093 16.5432 15.8521 18.4005 13.561 18.4005C11.27 18.4005 9.41279 16.5432 9.41279 14.2522C9.41279 11.9612 11.27 10.104 13.561 10.104C15.8521 10.104 17.7093 11.9612 17.7093 14.2522Z" stroke="#85868B" stroke-width="1.61321" stroke-linecap="round"/>
</svg>
